Coordinates
version=1
nRows=21
nColumns=22
inDegrees=yes

Units are S.I. units (second, meters, Newtons, ...)
If the header above contains a line with 'inDegrees', this indicates whether rotational values are in degrees (yes) or radians (no).

endheader
time	pelvis_tilt	pelvis_list	pelvis_rotation	pelvis_tx	pelvis_ty	pelvis_tz	hip_flexion_r	hip_adduction_r	hip_rotation_r	knee_angle_r	ankle_angle_r	subtalar_angle_r	hip_flexion_l	hip_adduction_l	hip_rotation_l	knee_angle_l	ankle_angle_l	subtalar_angle_l	lumbar_extension	lumbar_bending	lumbar_rotation
      0.01000000	      2.79254212	     -0.92348057	      1.37791575	     -0.68677665	      1.08544940	      1.15517016	     -3.57876894	     -0.27472431	     -1.72644045	    -11.80273343	     13.46888970	      0.07664819	     -3.92049062	     -1.38078766	     -0.87405166	    -11.55515689	     13.61797209	     -2.43002389	     -1.67448282	     -1.43396149	     -5.12473752
      0.02000000	      2.79069620	     -0.93272803	      1.30333768	     -0.68682027	      1.08543762	      1.15503677	     -3.57511738	     -0.28344508	     -1.65292353	    -11.78732033	     13.46376653	      0.13023977	     -3.91036715	     -1.37370448	     -0.96559122	    -11.58189835	     13.62211178	     -2.45650999	     -1.70710922	     -1.41214001	     -5.15332985
      0.03000000	      2.78067146	     -0.94421349	      1.23632575	     -0.68685399	      1.08541574	      1.15485484	     -3.55151386	     -0.29288770	     -1.61469738	    -11.79497485	     13.45721210	      0.14207889	     -3.91427443	     -1.36377397	     -0.99730463	    -11.56672056	     13.63081305	     -2.46445476	     -1.73558951	     -1.38428610	     -5.20372169
      0.04000000	      2.76516070	     -0.97127059	      1.12209822	     -0.68687586	      1.08538501	      1.15472670	     -3.53123642	     -0.28728099	     -1.49355734	    -11.77732783	     13.44782151	      0.18100805	     -3.90347344	     -1.37005079	     -1.12098286	    -11.57846223	     13.64621449	     -2.49486913	     -1.75973228	     -1.33949617	     -5.18328690
      0.05000000	      2.74056886	     -0.99133333	      1.02431595	     -0.68687015	      1.08534522	      1.15457583	     -3.49796096	     -0.28940094	     -1.41504192	    -11.77155575	     13.43295387	      0.20421062	     -3.89561302	     -1.36807327	     -1.20301677	    -11.56649103	     13.65519498	     -2.51595325	     -1.77446777	     -1.30450112	     -5.19023893
      0.06000000	      2.71739827	     -1.00235085	      0.95980002	     -0.68683877	      1.08530907	      1.15438074	     -3.47190781	     -0.30017798	     -1.38861587	    -11.76327461	     13.42441903	      0.20852866	     -3.89404194	     -1.35809849	     -1.24282741	    -11.54160807	     13.66306052	     -2.52188245	     -1.79352692	     -1.28113541	     -5.23750254
      0.07000000	      2.67271461	     -1.02590869	      0.85572887	     -0.68679813	      1.08524775	      1.15425922	     -3.42762351	     -0.29644154	     -1.28130660	    -11.73946904	     13.39856024	      0.22162054	     -3.86406705	     -1.36270018	     -1.36211352	    -11.53499847	     13.66753104	     -2.54271334	     -1.78917868	     -1.24588342	     -5.20619309
      0.08000000	      2.64102137	     -1.03597392	      0.80204295	     -0.68671860	      1.08520400	      1.15409285	     -3.39926093	     -0.30495303	     -1.26760234	    -11.72544492	     13.39008914	      0.22219296	     -3.86193097	     -1.35576845	     -1.39998791	    -11.49664523	     13.67495253	     -2.54683369	     -1.80035406	     -1.23144057	     -5.24191420
      0.09000000	      2.58251630	     -1.05196381	      0.71610226	     -0.68663954	      1.08513361	      1.15398809	     -3.34575381	     -0.30574715	     -1.18419688	    -11.69764194	     13.35452558	      0.22167602	     -3.82739477	     -1.35551492	     -1.50052708	    -11.47128103	     13.66603056	     -2.55896211	     -1.78229244	     -1.21337150	     -5.20779823
      0.10000000	      2.54558769	     -1.06077043	      0.67698869	     -0.68653434	      1.08508649	      1.15383604	     -3.31998342	     -0.31191044	     -1.17988467	    -11.67315078	     13.34695232	      0.21963036	     -3.82359568	     -1.35049097	     -1.53851472	    -11.42470155	     13.67241477	     -2.56152624	     -1.79082772	     -1.20721256	     -5.23252865
      0.11000000	      2.48555304	     -1.07169517	      0.60869775	     -0.68643326	      1.08502153	      1.15374055	     -3.27244080	     -0.31497072	     -1.11680228	    -11.63687019	     13.30362216	      0.21004420	     -3.79458971	     -1.34736408	     -1.61749739	    -11.38418754	     13.65421222	     -2.56661896	     -1.77415712	     -1.20191109	     -5.19692894
      0.12000000	      2.44644499	     -1.08013368	      0.57889624	     -0.68631062	      1.08497654	      1.15360752	     -3.25264809	     -0.31903542	     -1.11909340	    -11.60031512	     13.29526041	      0.20664142	     -3.79114298	     -1.34477127	     -1.65415730	    -11.33257406	     13.65938500	     -2.56838506	     -1.78242434	     -1.20252596	     -5.21103304
      0.13000000	      2.39450352	     -1.08972031	      0.52485721	     -0.68618744	      1.08492827	      1.15351856	     -3.22370774	     -0.32055506	     -1.07153063	    -11.55056858	     13.24526870	      0.19396945	     -3.77606865	     -1.34173118	     -1.71315409	    -11.28168145	     13.63879420	     -2.57116893	     -1.77585490	     -1.20187118	     -5.17792022
      0.14000000	      2.35084394	     -1.10055992	      0.48542772	     -0.68605492	      1.08488452	      1.15342398	     -3.20607774	     -0.31931948	     -1.04614355	    -11.50067194	     13.21499112	      0.18021524	     -3.76837305	     -1.34212489	     -1.76113409	    -11.23118092	     13.63218349	     -2.57570671	     -1.77896983	     -1.20132835	     -5.15678775
      0.15000000	      2.31309775	     -1.10981580	      0.45951152	     -0.68590796	      1.08484674	      1.15333113	     -3.19786926	     -0.31824289	     -1.04993586	    -11.44844493	     13.19848178	      0.17504445	     -3.76510177	     -1.34260353	     -1.79171108	    -11.18345305	     13.63235412	     -2.57814085	     -1.78724048	     -1.20536840	     -5.15096631
      0.16000000	      2.27293789	     -1.12477960	      0.41475116	     -0.68577005	      1.08481928	      1.15326541	     -3.19021859	     -0.31067755	     -1.00582762	    -11.38627723	     13.13862467	      0.15794732	     -3.75892512	     -1.34704966	     -1.83352353	    -11.13906402	     13.61328089	     -2.58437755	     -1.79568537	     -1.19892942	     -5.11089418
      0.17000000	      2.23607074	     -1.14006871	      0.37827373	     -0.68562286	      1.08478839	      1.15320675	     -3.18682746	     -0.30113287	     -0.97924427	    -11.32538335	     13.10101671	      0.13713146	     -3.75217015	     -1.35397418	     -1.87478077	    -11.10118475	     13.60737436	     -2.59272767	     -1.80857334	     -1.19331049	     -5.07468175
      0.18000000	      2.20000504	     -1.14881396	      0.35788488	     -0.68546570	      1.08475453	      1.15312257	     -3.18609116	     -0.29965477	     -0.99046455	    -11.26502432	     13.08958509	      0.13112716	     -3.74065895	     -1.35434406	     -1.89439426	    -11.07202112	     13.60709126	     -2.59525390	     -1.82333544	     -1.19257881	     -5.05055582
      0.19000000	      2.15889085	     -1.16784292	      0.31944486	     -0.68531679	      1.08472882	      1.15309743	     -3.18052361	     -0.28285905	     -0.94027924	    -11.19979086	     13.02255762	      0.10504981	     -3.72582378	     -1.36692192	     -1.93700185	    -11.04055780	     13.59324072	     -2.60382717	     -1.83557443	     -1.18285699	     -5.00459023
      0.20000000	      2.12368734	     -1.17556028	      0.29921165	     -0.68515333	      1.08469558	      1.15302234	     -3.17968678	     -0.28170148	     -0.95152809	    -11.14239044	     13.01709193	      0.09801402	     -3.71008269	     -1.36626117	     -1.95267096	    -11.02215729	     13.59353199	     -2.60630698	     -1.85487895	     -1.17863917	     -4.97710961
      0.21000000	      2.07738560	     -1.19352232	      0.26322655	     -0.68499326	      1.08466063	      1.15301497	     -3.16982684	     -0.26436666	     -0.89916179	    -11.07724992	     12.95427097	      0.06684760	     -3.68605288	     -1.37990070	     -1.99954748	    -10.99730245	     13.58447523	     -2.61560012	     -1.86290863	     -1.16890969	     -4.92907209
